<svg height="840" viewBox="0 0 1301 840" width="1301" xmlns="http://www.w3.org/2000/svg" xmlns:xlink="http://www.w3.org/1999/xlink"><linearGradient id="a" x1="80.839603%" x2="0%" y1="48.034691%" y2="65.453211%"><stop offset="0" stop-color="#c4e4ff"/><stop offset=".265532577" stop-color="#edf4ff"/><stop offset=".524910472" stop-color="#e7e9ff"/><stop offset="1" stop-color="#f0ffff" stop-opacity="0"/></linearGradient><filter id="b" height="131.2%" width="118.2%" x="-9.1%" y="-15.6%"><feGaussianBlur in="SourceGraphic" stdDeviation="50"/></filter><linearGradient id="c" x1="21.719621%" x2="77.160689%" y1="39.7766%" y2="35.721813%"><stop offset="0" stop-color="#645edf"/><stop offset=".412650519" stop-color="#1616ff" stop-opacity=".965704"/><stop offset="1" stop-color="#10bcff"/></linearGradient><filter id="d" height="185.1%" width="202.9%" x="-51.5%" y="-42.5%"><feGaussianBlur in="SourceGraphic" stdDeviation="86.8"/></filter><g fill="none" fill-rule="evenodd" transform="translate(24 -230.297876)"><path d="m0 230.297876h1277v842h-1277z"/><path d="m1051.86392 882.858166c340.63595 54.871899 585.27716-110.33772 630.89544-346.690576 45.61827-236.352855-193.5408-472.4371648-534.17674-527.30906318-340.635951-54.87189832-511.211842 153.70090718-556.83012 390.05376318-30.636103 158.728708-693.061041 446.973657-522.3402008 550.654175 83.4887388 50.703565 870.5783198-84.729593 982.4516208-66.708299z" fill="url(#a)" fill-opacity=".9" filter="url(#b)"/><path d="m1303.80767 557.981299c85.04502 0 87.59577-110.396836 87.59577-195.441859 0-59.450605-25.66414-142.323793-74.99398-167.986511-21.23727-11.048202-53.39924 13.998876-78.99365 13.998876-46.89545 0-151.99189-78.812608-180.23553-45.746327-22.97628 26.899511 106.33391 174.070427 106.33391 212.220002 0 10.808387-22.97203 120.603163-91.06769 201.825702-49.94164 59.568942-190.092993 174.333497-187.05797 182.135389 12.632593 32.473602 195.2974-44.882738 278.12566-95.990273 63.72468-39.320047 110.52952-69.476426 140.29348-105.014999z" fill="url(#c)" filter="url(#d)" opacity=".394677"/></g></svg>