<?xml version="1.0" encoding="UTF-8"?>
<svg width="809px" height="562px" viewBox="0 0 809 562" version="1.1" xmlns="http://www.w3.org/2000/svg" xmlns:xlink="http://www.w3.org/1999/xlink">
    <title>Oval</title>
    <defs>
        <linearGradient x1="13.2347695%" y1="44.1466072%" x2="89.7222371%" y2="46.6522999%" id="linearGradient-1">
            <stop stop-color="#645EDF" offset="0%"></stop>
            <stop stop-color="#3131E9" stop-opacity="0.965704321" offset="41.2650519%"></stop>
            <stop stop-color="#2FC4FF" offset="100%"></stop>
        </linearGradient>
        <filter x="-30.7%" y="-63.3%" width="161.3%" height="226.6%" filterUnits="objectBoundingBox" id="filter-2">
            <feGaussianBlur stdDeviation="84" in="SourceGraphic"></feGaussianBlur>
        </filter>
    </defs>
    <g id="🔸-Components" stroke="none" stroke-width="1" fill="none" fill-rule="evenodd" opacity="0.601071312">
        <g id="Components/02-Footer/XXL/L" transform="translate(-1111.000000, -186.000000)" fill="url(#linearGradient-1)">
            <path d="M1574.96411,763.362159 C1710.16451,780.006091 2091.93453,781.520924 2110.04069,709.829568 C2113.5899,695.776491 2007.85137,676.289667 1913.49198,654.989772 C1804.37717,630.359113 1704.23972,575.309226 1680.54536,569.18162 C1441.04712,507.244909 1545.30525,394.270433 1467.25361,384.661836 C1332.05321,368.017904 1353.8724,526.238424 1335.76624,597.92978 C1323.60659,646.075914 1248.35355,746.055434 1316.11365,777.504164 C1349.25081,792.883743 1530.56094,757.895878 1574.96411,763.362159 Z" id="Oval" filter="url(#filter-2)" transform="translate(1699.151780, 582.443890) scale(-1, 1) translate(-1699.151780, -582.443890) "></path>
        </g>
    </g>
</svg>